<?xml version="1.0" encoding="UTF-8"?>
<svg width="407px" height="201px" viewBox="0 0 407 201" version="1.1" xmlns="http://www.w3.org/2000/svg" xmlns:xlink="http://www.w3.org/1999/xlink">
    <!-- Generator: Sketch 41 (35326) - http://www.bohemiancoding.com/sketch -->
    <title>not-found</title>
    <desc>Created with Sketch.</desc>
    <defs>
        <path d="M66.336,132.28 L66.336,111.688 L112.848,47.896 L139.344,47.896 L139.344,110.824 L151.584,110.824 L151.584,132.28 L139.344,132.28 L139.344,151 L114.432,151 L114.432,132.28 L66.336,132.28 Z M116.448,76.408 L91.392,110.824 L116.448,110.824 L116.448,76.408 Z M172.464,136.888 C178.896032,146.200047 189.167929,150.856 203.28,150.856 C217.29607,150.856 227.543968,146.200047 234.024,136.888 C240.504032,127.575953 243.744,114.95208 243.744,99.016 C243.744,83.1759208 240.504032,70.6240463 234.024,61.36 C227.543968,52.0959537 217.29607,47.464 203.28,47.464 C189.167929,47.464 178.896032,52.0959537 172.464,61.36 C166.031968,70.6240463 162.816,83.1759208 162.816,99.016 C162.816,114.95208 166.031968,127.575953 172.464,136.888 Z M216.024,120.112 C213.863989,125.056025 209.616032,127.528 203.28,127.528 C196.847968,127.528 192.528011,125.056025 190.32,120.112 C188.111989,115.167975 187.008,108.136046 187.008,99.016 C187.008,89.9919549 188.111989,83.0320245 190.32,78.136 C192.528011,73.2399755 196.847968,70.792 203.28,70.792 C209.616032,70.792 213.863989,73.2159758 216.024,78.064 C218.184011,82.9120242 219.264,89.8959544 219.264,99.016 C219.264,108.136046 218.184011,115.167975 216.024,120.112 Z M255.84,132.28 L255.84,111.688 L302.352,47.896 L328.848,47.896 L328.848,110.824 L341.088,110.824 L341.088,132.28 L328.848,132.28 L328.848,151 L303.936,151 L303.936,132.28 L255.84,132.28 Z M305.952,76.408 L280.896,110.824 L305.952,110.824 L305.952,76.408 Z" id="path-1"></path>
        <filter x="-50%" y="-50%" width="200%" height="200%" filterUnits="objectBoundingBox" id="filter-2">
            <feOffset dx="0" dy="2" in="SourceAlpha" result="shadowOffsetOuter1"></feOffset>
            <feGaussianBlur stdDeviation="2" in="shadowOffsetOuter1" result="shadowBlurOuter1"></feGaussianBlur>
            <feColorMatrix values="0 0 0 0 0   0 0 0 0 0   0 0 0 0 0  0 0 0 0.5 0" type="matrix" in="shadowBlurOuter1"></feColorMatrix>
        </filter>
    </defs>
    <g id="Symbols" stroke="none" stroke-width="1" fill="none" fill-rule="evenodd">
        <g id="not-found">
            <g id="404">
            <!-- <path d="M58.6020942,122 L268.539267,122 L232.876847,122 C226.261603,122 220.884817,127.372583 220.884817,134 C220.884817,140.628874 226.253831,146 232.876847,146 L268.539267,146 L58.6020942,146 L69.1493313,146 C75.7645749,146 81.1413613,140.627417 81.1413613,134 C81.1413613,127.371126 75.7723466,122 69.1493313,122 L58.6020942,122 Z M241.492147,74 L44.7565445,74 L69.1418022,74 C75.7689757,74 81.1413613,79.3711258 81.1413613,86 C81.1413613,92.627417 75.7758414,98 69.1418022,98 L44.7565445,98 L241.492147,98 L188.449821,98 C181.822647,98 176.450262,92.6288742 176.450262,86 C176.450262,79.372583 181.815782,74 188.449821,74 L241.492147,74 Z M0,110 C0,103.372583 5.36671672,98 12.0057085,98 L244.941935,98 C251.572505,98 256.947644,103.371126 256.947644,110 C256.947644,116.627417 251.580927,122 244.941935,122 L12.0057085,122 C5.3751388,122 0,116.628874 0,110 Z M36.0628272,62 C36.0628272,55.372583 41.4443812,50 48.0648685,50 L208.882776,50 C215.51132,50 220.884817,55.3711258 220.884817,62 C220.884817,68.627417 215.503263,74 208.882776,74 L48.0648685,74 C41.4363241,74 36.0628272,68.6288742 36.0628272,62 Z M36.0628272,158 C36.0628272,151.372583 41.4273261,146 48.0596183,146 L357.003209,146 C363.628854,146 369,151.371126 369,158 C369,164.627417 363.635501,170 357.003209,170 L48.0596183,170 C41.4339735,170 36.0628272,164.628874 36.0628272,158 Z" id="Combined-Shape" fill="#202225" opacity="1"></path> -->
                <use fill="black" fill-opacity="1" filter="url(#filter-2)" xlink:href="#path-1"></use>
                <use fill="#FFFFFF" fill-rule="evenodd" xlink:href="#path-1"></use>
            </g>
        </g>
    </g>
</svg>